<svg width="1242" height="2688" viewBox="0 0 1242 2688" xmlns="http://www.w3.org/2000/svg">
  <defs>
    <linearGradient id="bg" x1="0" y1="0" x2="1242" y2="2688" gradientUnits="userSpaceOnUse">
      <stop stop-color="#1a1c22"/>
      <stop offset="1" stop-color="#0d0e12"/>
    </linearGradient>
    <linearGradient id="brand" x1="0" y1="0" x2="512" y2="512" gradientUnits="userSpaceOnUse">
      <stop stop-color="#FF5722"/>
      <stop offset="1" stop-color="#FF9800"/>
    </linearGradient>
    <filter id="glow" x="-50%" y="-50%" width="200%" height="200%">
      <feGaussianBlur stdDeviation="40" result="b"/>
      <feMerge><feMergeNode in="b"/><feMergeNode in="SourceGraphic"/></feMerge>
    </filter>
  </defs>
  <rect width="1242" height="2688" fill="url(#bg)"/>
  <g transform="translate(365 1088)">
    <rect width="512" height="512" rx="120" fill="url(#brand)" filter="url(#glow)"/>
    <g transform="translate(0 0)">
      <rect x="120" y="180" width="220" height="150" rx="10" fill="white" fill-opacity="0.9"/>
      <path d="M340 230H390C410 230 420 240 420 260V330H340V230Z" fill="white"/>
      <path d="M355 245H385C395 245 400 250 400 260V285H355V245Z" fill="#FF5722" fill-opacity="0.2"/>
      <circle cx="170" cy="350" r="35" fill="#1A1C22"/>
      <circle cx="170" cy="350" r="15" fill="#444"/>
      <circle cx="370" cy="350" r="35" fill="#1A1C22"/>
      <circle cx="370" cy="350" r="15" fill="#444"/>
      <rect x="70" y="210" width="30" height="8" rx="4" fill="white" fill-opacity="0.6"/>
      <rect x="50" y="250" width="50" height="8" rx="4" fill="white" fill-opacity="0.4"/>
      <rect x="70" y="290" width="30" height="8" rx="4" fill="white" fill-opacity="0.6"/>
    </g>
  </g>
  <text x="621" y="1720" font-family="system-ui, -apple-system, sans-serif" font-size="64" font-weight="900" fill="white" text-anchor="middle" letter-spacing="2">ROTA CERTA</text>
  <text x="621" y="1780" font-family="system-ui, -apple-system, sans-serif" font-size="28" font-weight="500" fill="#FF9800" text-anchor="middle" letter-spacing="8">GESTÃO DE ENTREGAS</text>
</svg>
